<svg width="16" height="16" viewBox="0 0 16 16" fill="none" xmlns="http://www.w3.org/2000/svg">
<g id="emojione:avocado" clip-path="url(#clip0_2_66)">
<path id="Vector" d="M13.05 1.97499L13.675 2.62499L15 1.74999C15.55 1.67499 15.8 0.499994 14.3 0.874994C13.925 0.974994 13.35 1.24999 13.05 1.97499Z" fill="#89664C"/>
<path id="Vector_2" d="M15.275 1.74999C15.725 1.57499 15.4 1.04999 15.4 1.04999C15.4 1.04999 15.5 1.42499 14.8 1.52499C13.775 1.67499 13.5 2.42499 13.5 2.42499L13.675 2.59999C13.675 2.59999 14.275 2.14999 15.275 1.74999Z" fill="#594640"/>
<path id="Vector_3" d="M13.375 1.49997C15.575 3.82497 13.675 7.32497 11.475 11.375C11.3 11.725 11.1 12.05 10.925 12.4C9.375 15.275 7.1 15.575 5.875 15.5C4.5 15.4 3.125 14.75 2.2 13.775C1.25 12.775 0.624997 11.325 0.524997 9.84997C0.424997 8.54997 0.649997 6.07497 3.3 4.34997C3.6 4.14997 3.925 3.94997 4.225 3.74997C7.95 1.29997 11.175 -0.825027 13.375 1.49997Z" fill="#699635"/>
<g id="Group">
<path id="Vector_4" d="M3.75 4.975C7.375 2.625 11.075 -0.125001 13 1.925C14.925 3.95 11.125 6.575 9 10.55C6.875 14.5 4.275 15.175 2.55 13.375C0.849999 11.55 0.0999986 7.35 3.75 4.975Z" fill="#C7E755"/>
<path id="Vector_5" d="M2.95 12.95C3.35 13.35 3.775 13.575 4.275 13.6C5.65 13.7 7.175 12.4 8.45 10.05C9.175 8.67498 10.1 7.47498 10.925 6.39998C12.225 4.72498 13.425 3.12498 12.65 2.29998C11.325 0.89998 7.9 3.14998 5.15 4.97498C4.85 5.17498 4.525 5.37498 4.225 5.57498C1.95 7.04998 1.75 9.07498 1.825 10.15C1.9 11.25 2.325 12.3 2.95 12.95Z" fill="#C7E755"/>
</g>
<path id="Vector_6" opacity="0.33" d="M2.95 12.95C3.35 13.35 3.775 13.575 4.275 13.6C5.65 13.7 7.175 12.4 8.45 10.05C9.175 8.67498 10.1 7.47498 10.925 6.39998C12.225 4.72498 13.425 3.12498 12.65 2.29998C11.325 0.89998 7.9 3.14998 5.15 4.97498C4.85 5.17498 4.525 5.37498 4.225 5.57498C1.95 7.04998 1.75 9.07498 1.825 10.15C1.9 11.25 2.325 12.3 2.95 12.95Z" fill="#FFCE31"/>
<path id="Vector_7" d="M4.3 6.75001C5.8 5.10001 8 5.25001 8.45 6.25001C8.9 7.25001 8.25 8.75001 7.25 9.85001C6.225 10.95 4.85 11.675 3.925 11.225C2.975 10.775 2.8 8.40001 4.3 6.75001Z" fill="#89664C"/>
<path id="Vector_8" d="M4.125 8.40001C4.775 7.45001 5.45 7.20001 5.325 7.42501C5.225 7.65001 4.875 8.20001 4.675 8.70001C4.45 9.20001 4.325 9.62501 4.075 9.77501C3.825 9.97501 3.5 9.42501 4.125 8.40001Z" fill="#D3976E"/>
<path id="Vector_9" d="M6.6 9.175C5.725 10.1 4.675 10.825 3.675 11.05C3.75 11.125 3.825 11.2 3.925 11.225C4.875 11.7 6.225 10.975 7.25 9.85C8.25 8.75 8.9 7.25 8.45 6.25C8.4 6.15 8.35 6.075 8.275 6C8.1 7.05 7.45 8.225 6.6 9.175Z" fill="#594640"/>
</g>
<defs>
<clipPath id="clip0_2_66">
<rect width="16" height="16" fill="white"/>
</clipPath>
</defs>
</svg>
