<svg width="16" height="16" viewBox="0 0 16 16" fill="none" xmlns="http://www.w3.org/2000/svg">
<g id="noto:bread" clip-path="url(#clip0_2_90)">
<path id="Vector" d="M1.58875 7.07628C1.58875 7.07628 1.5 10.2613 1.5 10.7013C1.5 11.1413 1.46125 11.5938 1.81 11.865C2.02125 12.03 2.995 12.7625 4.29375 13.495C5.5925 14.2275 7.3275 15.0988 7.68375 15.245C8.04 15.3913 8.4475 15.31 8.905 15.14C9.32375 14.985 10.26 14.5113 11.6213 13.82C12.9825 13.1288 13.6088 12.78 13.9888 12.4788C14.2763 12.2513 14.5538 11.955 14.5125 11.4313C14.47 10.9075 14.4825 9.71753 14.4413 9.21503C14.3988 8.71253 14.3663 6.87378 14.3663 6.87378L15.4863 4.81753C15.4863 4.81753 15.4588 4.38878 15.3613 4.12378C15.2163 3.72878 14.9475 3.51628 14.9475 3.51628L6.11375 1.96753C6.11375 1.96753 1.605 3.03253 1.355 3.17753C1.105 3.32253 0.456251 3.86128 0.473751 4.82128C0.500001 6.20003 1.58875 7.07628 1.58875 7.07628Z" fill="#E07F14"/>
<path id="Vector_2" d="M2.17375 6.88626C2.17375 6.88626 2.0075 10.555 2.09625 11.0838C2.17 11.5263 3.52125 12.315 4.50625 12.8775C5.39375 13.385 7.275 14.1813 7.5325 14.3038C7.79 14.4263 7.9125 14.195 7.9125 13.9913C7.9125 13.7875 7.92625 9.38001 7.92625 9.38001C7.92625 9.38001 9.07125 9.17626 9.2875 8.15876C9.50375 7.14126 8.34125 5.53126 5.22625 4.32126C2.01125 3.07501 1.06875 3.79876 1.03125 4.69626C0.9775 6.02626 2.17375 6.88626 2.17375 6.88626Z" fill="#FFEBCA"/>
<path id="Vector_3" d="M10.1825 7.14123C10.1825 7.14123 10.545 8.41748 9.87625 9.12373C9.19875 9.83873 8.62875 9.96498 8.62875 9.96498C8.62875 9.96498 8.5825 10.5412 8.61 10.6087C8.67375 10.7675 10.6762 9.95123 11.9375 9.42248L14.3925 8.39248C14.3925 8.39248 14.3512 7.76873 14.3925 7.78248C14.4338 7.79623 15.0837 7.15873 15.315 6.33123C15.545 5.50373 15.4875 4.82123 15.4875 4.82123C15.4875 4.82123 13.4088 5.68873 12.685 6.01873C11.9925 6.33373 10.4975 6.96873 10.1825 7.14123Z" fill="#AC5811"/>
<path id="Vector_4" d="M9.6175 6.09624C9.7 6.18624 15.1938 3.79374 15.1938 3.79374C15.1938 3.79374 13.3225 0.849989 8.61625 0.769989C3.8025 0.687489 1.0775 3.28624 1.02 3.44374C0.975 3.56624 1.89 2.36999 4.955 3.35999C8.02 4.34999 9.165 5.60624 9.6175 6.09624Z" fill="#F5B03E"/>
</g>
<defs>
<clipPath id="clip0_2_90">
<rect width="16" height="16" fill="white"/>
</clipPath>
</defs>
</svg>
