<svg width="18" height="19" viewBox="0 0 18 19" fill="none" xmlns="http://www.w3.org/2000/svg">
<g id="uil:cart">
<path id="Vector" d="M14.25 5.75H12V5C12 4.20435 11.6839 3.44129 11.1213 2.87868C10.5587 2.31607 9.79565 2 9 2C8.20435 2 7.44129 2.31607 6.87868 2.87868C6.31607 3.44129 6 4.20435 6 5V5.75H3.75C3.55109 5.75 3.36032 5.82902 3.21967 5.96967C3.07902 6.11032 3 6.30109 3 6.5V14.75C3 15.3467 3.23705 15.919 3.65901 16.341C4.08097 16.7629 4.65326 17 5.25 17H12.75C13.3467 17 13.919 16.7629 14.341 16.341C14.7629 15.919 15 15.3467 15 14.75V6.5C15 6.30109 14.921 6.11032 14.7803 5.96967C14.6397 5.82902 14.4489 5.75 14.25 5.75ZM7.5 5C7.5 4.60218 7.65804 4.22064 7.93934 3.93934C8.22064 3.65804 8.60218 3.5 9 3.5C9.39782 3.5 9.77936 3.65804 10.0607 3.93934C10.342 4.22064 10.5 4.60218 10.5 5V5.75H7.5V5ZM13.5 14.75C13.5 14.9489 13.421 15.1397 13.2803 15.2803C13.1397 15.421 12.9489 15.5 12.75 15.5H5.25C5.05109 15.5 4.86032 15.421 4.71967 15.2803C4.57902 15.1397 4.5 14.9489 4.5 14.75V7.25H6V8C6 8.19891 6.07902 8.38968 6.21967 8.53033C6.36032 8.67098 6.55109 8.75 6.75 8.75C6.94891 8.75 7.13968 8.67098 7.28033 8.53033C7.42098 8.38968 7.5 8.19891 7.5 8V7.25H10.5V8C10.5 8.19891 10.579 8.38968 10.7197 8.53033C10.8603 8.67098 11.0511 8.75 11.25 8.75C11.4489 8.75 11.6397 8.67098 11.7803 8.53033C11.921 8.38968 12 8.19891 12 8V7.25H13.5V14.75Z" fill="#3E312D"/>
</g>
</svg>
