<svg width="17" height="16" viewBox="0 0 17 16" fill="none" xmlns="http://www.w3.org/2000/svg">
<g id="noto:garlic">
<path id="Vector" d="M8.4 12.3713L6.38375 13.7213C6.38375 13.7213 6.8575 13.965 7.075 14.3663C7.3375 14.85 7.17625 15.1813 7.29 15.215C7.38125 15.2425 7.63625 15.1625 7.70875 15.0225C7.79875 14.8475 7.79375 14.7275 7.79375 14.7275C7.79375 14.7275 7.92625 14.8125 8.1275 15.1525C8.26 15.3775 8.33125 15.6113 8.4675 15.6113C8.64875 15.6113 8.6825 15.3788 8.69375 15.2438C8.705 15.1088 8.715 14.8575 8.715 14.8575C8.715 14.8575 8.97 15.3188 9.07125 15.42C9.1725 15.5213 9.345 15.5663 9.41875 15.4188C9.4925 15.2713 9.4625 15.075 9.60625 14.71C9.8125 14.1875 10.46 13.5563 10.46 13.5563L8.4 12.3713Z" fill="#BB9176"/>
<path id="Vector_2" d="M3.925 12.0775C3.925 12.0775 4.33625 13.0212 5.09125 13.3912C6.10875 13.89 6.96 13.72 6.96 13.72C6.96 13.72 7.60625 14.2412 8.67 14.2412C9.735 14.2412 10.7088 13.3687 10.7088 13.3687C10.7088 13.3687 11.39 13.6337 12.385 13.0962C13.2463 12.6312 13.3138 11.9412 13.3138 11.9412C13.3138 11.9412 14.1525 11.6012 14.435 10.7287C14.7188 9.85622 14.7225 8.89247 14.14 7.98747C13.5288 7.03622 11.6475 5.83497 11.3425 5.59747C11.0363 5.35997 10.0063 4.70247 9.77875 4.18122C9.55125 3.65997 9.37875 2.53622 9.36 1.96872C9.33 1.05247 9.405 0.601225 9.155 0.464975C8.90625 0.328725 8.43 0.601225 8.18125 0.713725C7.9325 0.826225 7.35375 1.11497 7.315 1.23622C7.27625 1.35747 7.4 1.99372 7.32 2.77497C7.24125 3.55622 7.03375 4.31372 6.51625 4.80247C5.315 5.93497 3.91125 6.48997 3.15125 7.56622C2.39125 8.64247 2.15375 10.0587 2.7325 10.9987C3.3125 11.9412 3.925 12.0775 3.925 12.0775Z" fill="url(#paint0_radial_2_79)"/>
<path id="Vector_3" d="M3.925 12.0775C3.925 12.0775 4.33625 13.0212 5.09125 13.3912C6.10875 13.89 6.96 13.72 6.96 13.72C6.96 13.72 7.60625 14.2412 8.67 14.2412C9.735 14.2412 10.7088 13.3687 10.7088 13.3687C10.7088 13.3687 11.39 13.6337 12.385 13.0962C13.2463 12.6312 13.3138 11.9412 13.3138 11.9412C13.3138 11.9412 14.1525 11.6012 14.435 10.7287C14.7188 9.85625 14.7225 8.8925 14.14 7.9875C13.5288 7.03625 12.3838 6.2925 11.3425 5.5975C11.02 5.3825 10.0063 4.7025 9.77875 4.18125C9.55125 3.66 9.37 2.66875 9.345 2.1025C9.31375 1.37875 7.4 1.995 7.32 2.77625C7.24125 3.5575 7.03375 4.315 6.51625 4.80375C5.315 5.93625 3.91125 6.49125 3.15125 7.5675C2.39125 8.64375 2.15375 10.06 2.7325 11C3.3125 11.9412 3.925 12.0775 3.925 12.0775Z" fill="url(#paint1_radial_2_79)"/>
<path id="Vector_4" d="M5.54375 8.01501C5.54375 8.01501 4.07 8.50376 3.53125 9.79001C3.12 10.7713 3.32875 11.7163 3.32875 11.7163C3.32875 11.7163 3.50875 11.9163 3.6475 11.9763C3.7875 12.0363 3.92375 12.0775 3.92375 12.0775C3.92375 12.0775 4.01625 12.2863 4.09625 12.405C4.17625 12.5238 4.37625 12.7838 4.37625 12.7838C4.37625 12.7838 4.10375 12.0575 4.3675 10.76C4.735 8.95626 5.54375 8.01501 5.54375 8.01501Z" fill="url(#paint2_radial_2_79)"/>
<path id="Vector_5" d="M11.4513 7.05627C11.4513 7.05627 12.6788 8.48377 13.035 9.45502C13.6513 11.1363 13.315 11.94 13.315 11.94C13.315 11.94 13.725 11.825 14.025 11.4663C14.325 11.1075 14.4375 10.5975 14.2363 9.63752C14.05 8.75252 13.1288 8.06877 13.1288 8.06877L13.3363 8.88002C13.3363 8.88002 13.115 8.46127 12.6363 7.95127C11.9938 7.26752 11.4513 7.05627 11.4513 7.05627Z" fill="url(#paint3_radial_2_79)"/>
<path id="Vector_6" d="M6.03875 7.36123C6.03875 7.36123 7.00875 5.71498 7.33125 4.91248C7.67125 4.06623 7.88625 3.72498 7.84875 2.43373C7.82875 1.79123 7.6625 0.973726 7.6625 0.973726L8.02875 0.787476C8.02875 0.787476 8.43 1.79748 8.5825 2.99873C8.735 4.19998 8.79 4.99123 8.1975 6.76748C7.705 8.24373 7.1325 9.06373 6.7525 10.0225C6.3725 10.9812 5.90125 13.5112 8.5175 13.8525C10.845 14.1562 11.065 12.0675 10.3875 10.5237C9.87125 9.34498 9.18625 7.89248 9.17125 6.99498C9.15625 6.09748 9.2175 5.73248 9.2175 5.73248C9.2175 5.73248 9.9775 7.02498 10.3275 7.70998C10.6775 8.39498 11.4725 9.77122 11.4562 11.0787C11.4412 12.345 11.0512 14.21 8.52625 14.2912C6.15375 14.3687 4.97375 11.8 5.825 9.73373C6.73125 7.53373 7.22125 7.01873 7.49 6.34373C7.8375 5.47123 7.8325 5.00623 7.8325 5.00623C7.8325 5.00623 7.30125 5.80873 6.90625 6.34123C6.64375 6.69373 6.03875 7.36123 6.03875 7.36123Z" fill="url(#paint4_radial_2_79)"/>
<path id="Vector_7" d="M8.92125 4.44751C8.92125 4.44751 9.10625 5.03751 9.1425 5.99751C9.18 6.95751 9.31875 7.56376 9.53125 8.50876C9.69875 9.25251 10.655 10.4975 10.7 12.0313C10.73 13.055 10.2387 13.9213 8.71875 13.86C6.265 13.7613 6.4225 11.5613 6.495 10.8613C6.57375 10.1188 7.90625 7.82501 8.275 6.58751C8.51625 5.78001 8.92125 4.44751 8.92125 4.44751Z" fill="url(#paint5_radial_2_79)"/>
<path id="Vector_8" d="M10.3888 10.525C11.305 12.6188 10.0063 13.9063 10.0063 13.9063C11.2025 13.3038 11.4463 12.0425 11.4575 11.08C11.4725 9.77251 10.6775 8.39501 10.3288 7.71126C9.97875 7.02626 9.21875 5.73376 9.21875 5.73376C9.21875 5.73376 9.1575 6.09876 9.1725 6.99626C9.1875 7.89376 9.86875 9.34876 10.3888 10.525Z" fill="url(#paint6_radial_2_79)"/>
</g>
<defs>
<radialGradient id="paint0_radial_2_79" cx="0" cy="0" r="1" gradientUnits="userSpaceOnUse" gradientTransform="translate(8.5765 10.9217) scale(14.3772 14.3772)">
<stop offset="0.181" stop-color="#EDDFDF"/>
<stop offset="0.335" stop-color="#E7CED1"/>
<stop offset="0.519" stop-color="#E3C1C6"/>
<stop offset="0.69" stop-color="#E1BDC2"/>
</radialGradient>
<radialGradient id="paint1_radial_2_79" cx="0" cy="0" r="1" gradientUnits="userSpaceOnUse" gradientTransform="translate(8.57036 8.29601) rotate(-90.5701) scale(3.25629 6.41716)">
<stop stop-color="#F8F6F7" stop-opacity="0.7"/>
<stop offset="0.824" stop-color="#F8F6F7" stop-opacity="0"/>
</radialGradient>
<radialGradient id="paint2_radial_2_79" cx="0" cy="0" r="1" gradientUnits="userSpaceOnUse" gradientTransform="translate(3.7415 12.3246) scale(4.47712)">
<stop offset="0.181" stop-color="#C8A9B3"/>
<stop offset="0.488" stop-color="#D2B2BA"/>
<stop offset="0.69" stop-color="#DBBAC0"/>
</radialGradient>
<radialGradient id="paint3_radial_2_79" cx="0" cy="0" r="1" gradientUnits="userSpaceOnUse" gradientTransform="translate(13.9671 11.4939) scale(4.80525)">
<stop offset="0.126" stop-color="#B494A7"/>
<stop offset="0.283" stop-color="#BB9BAC"/>
<stop offset="0.6" stop-color="#C4A5B2"/>
</radialGradient>
<radialGradient id="paint4_radial_2_79" cx="0" cy="0" r="1" gradientUnits="userSpaceOnUse" gradientTransform="translate(8.63412 0.848851) scale(13.5476)">
<stop offset="0.094" stop-color="#A385A0"/>
<stop offset="0.403" stop-color="#C0A0AD"/>
<stop offset="0.405" stop-color="#C0A0AD"/>
<stop offset="0.559" stop-color="#D5B7C0"/>
<stop offset="0.671" stop-color="#E0C3CA"/>
</radialGradient>
<radialGradient id="paint5_radial_2_79" cx="0" cy="0" r="1" gradientUnits="userSpaceOnUse" gradientTransform="translate(8.61737 10.79) scale(6.50737)">
<stop stop-color="#F8F6F7"/>
<stop offset="0.782" stop-color="#F8F6F7" stop-opacity="0"/>
</radialGradient>
<radialGradient id="paint6_radial_2_79" cx="0" cy="0" r="1" gradientUnits="userSpaceOnUse" gradientTransform="translate(10.1149 5.79801) scale(7.8835 7.8835)">
<stop offset="0.238" stop-color="#E0C3CA"/>
<stop offset="0.357" stop-color="#D8BBC5"/>
<stop offset="0.542" stop-color="#C3A6B6"/>
<stop offset="0.753" stop-color="#A385A0"/>
<stop offset="0.819" stop-color="#A688A2" stop-opacity="0.705"/>
<stop offset="0.871" stop-color="#B092A9" stop-opacity="0.472"/>
<stop offset="0.918" stop-color="#C0A3B4" stop-opacity="0.26"/>
<stop offset="0.963" stop-color="#D7BAC4" stop-opacity="0.061"/>
<stop offset="0.976" stop-color="#E0C3CA" stop-opacity="0"/>
</radialGradient>
</defs>
</svg>
